<?xml version="1.0" standalone="no"?>
<!DOCTYPE svg PUBLIC "-//W3C//DTD SVG 1.1//EN" "http://www.w3.org/Graphics/SVG/1.1/DTD/svg11.dtd" >
<svg xmlns="http://www.w3.org/2000/svg">
<metadata>Generated by IcoMoon</metadata>
<defs>
<font id="icomoon" horiz-adv-x="1024">
<font-face units-per-em="1024" ascent="960" descent="-64" />
<missing-glyph horiz-adv-x="1024" />
<glyph unicode="&#x20;" horiz-adv-x="512" d="" />
<glyph unicode="&#xe600;" glyph-name="facebook" d="M963.488 960h-907.203c-31.094 0-56.286-25.191-56.286-56.282v-907.211c0-31.083 25.191-56.282 56.286-56.282h488.406v394.909h-132.895v153.906h132.895v113.5c0 131.718 80.445 203.44 197.945 203.44 56.286 0 104.658-4.192 118.761-6.064v-137.652l-81.5-0.038c-63.901 0-76.273-30.365-76.273-74.924v-98.262h152.4l-19.842-153.906h-132.558v-394.909h259.863c31.083 0 56.282 25.199 56.282 56.282v907.211c0 31.091-25.199 56.282-56.282 56.282z" />
<glyph unicode="&#xe601;" glyph-name="google" d="M525.056 375.4l-48.018 37.289c-14.624 12.128-34.624 28.138-34.624 57.446 0 29.428 20.001 48.139 37.361 65.463 55.939 44.028 111.83 90.889 111.83 189.639 0 101.546-63.896 154.966-94.518 180.307h82.571l86.67 54.456h-262.564c-72.046 0-175.871-17.047-251.883-79.798-57.289-49.429-85.235-117.581-85.235-178.933 0-104.151 79.966-209.724 221.177-209.724 13.334 0 27.921 1.314 42.605 2.676-6.595-16.046-13.261-29.404-13.261-52.081 0-41.364 21.254-66.729 39.989-90.756-60.002-4.123-172.013-10.766-254.583-61.521-78.64-46.765-102.571-114.832-102.571-162.875 0-98.882 93.204-190.989 286.471-190.989 229.182 0 350.512 126.816 350.512 252.353 0.012 92.239-53.275 137.642-111.927 187.047v0zM350.5 528.967c-114.651 0-166.588 148.215-166.588 237.645 0 34.817 6.595 70.768 29.272 98.846 21.375 26.74 58.603 44.088 93.361 44.088 110.528 0 167.854-149.541 167.854-245.722 0-24.063-2.652-66.705-33.298-97.532-21.435-21.387-57.301-37.325-90.6-37.325v0zM351.814-8.037c-142.573 0-234.51 68.2-234.51 163.031 0 94.807 85.247 126.876 114.579 137.497 55.939 18.819 127.925 21.447 139.932 21.447 13.322 0 19.989 0 30.598-1.338 101.354-72.13 145.345-108.081 145.345-176.365 0-82.691-67.983-144.272-195.944-144.272zM861.584 531.005v133.519h-65.946v-133.519h-133.302v-66.681h133.302v-134.338h65.946v134.338h133.977v66.681h-133.977z" />
<glyph unicode="&#xe602;" glyph-name="instagram" d="M816.727 526.818c6.495-25.213 10.331-51.556 10.331-78.795 0-174.036-141.053-315.080-315.062-315.080-174 0-315.062 141.044-315.062 315.080 0 27.239 3.854 53.582 10.349 78.795h-89.153v-433.264c0-21.721 17.641-39.352 39.425-39.352h708.892c21.784 0 39.425 17.632 39.425 39.352v433.264h-89.144zM866.446 841.871h-118.129c-21.757 0-39.379-17.641-39.379-39.379v-118.174c0-21.739 17.623-39.379 39.379-39.379h118.129c21.784 0 39.425 17.641 39.425 39.379v118.174c0 21.739-17.641 39.379-39.425 39.379zM315.071 448.023c0-108.748 88.158-196.942 196.924-196.942s196.942 88.194 196.942 196.942c0 108.766-88.176 196.915-196.942 196.915s-196.924-88.149-196.924-196.915zM118.129-63.991c-65.234 0-118.129 52.913-118.129 118.192v787.669c0 65.243 52.895 118.129 118.129 118.129h787.742c65.243 0 118.129-52.886 118.129-118.129v-787.669c0-65.28-52.886-118.192-118.129-118.192h-787.742z" />
<glyph unicode="&#xe603;" glyph-name="pinterest" d="M512 960c-282.769 0-512-229.231-512-512 0-216.902 134.949-402.166 325.41-476.768-4.475 40.508-8.517 102.643 1.78 146.875 9.298 39.95 60.036 254.497 60.036 254.497s-15.318 30.665-15.318 76.009c0 71.19 41.268 124.342 92.644 124.342 43.682 0 64.78-32.801 64.78-72.122 0-43.929-27.965-109.608-42.402-170.467-12.060-50.973 25.556-92.535 75.816-92.535 91.007 0 160.954 95.965 160.954 234.466 0 122.587-88.081 208.301-213.867 208.301-145.679 0-231.187-109.272-231.187-222.191 0-44.005 16.955-91.192 38.103-116.844 4.181-5.071 4.794-9.512 3.547-14.68-3.883-16.182-12.522-50.961-14.214-58.072-2.233-9.374-7.426-11.359-17.123-6.847-63.953 29.77-103.928 123.263-103.928 198.352 0 161.509 117.348 309.832 338.293 309.832 177.607 0 315.637-126.558 315.637-295.702 0-176.461-111.257-318.467-265.676-318.467-51.888 0-100.658 26.954-117.352 58.794 0 0-25.673-97.761-31.895-121.71-11.565-44.471-42.767-100.217-63.642-134.223 47.909-14.835 98.819-22.836 151.602-22.836 282.769 0 512 229.227 512 511.996s-229.231 512-512 512z" />
<glyph unicode="&#xe604;" glyph-name="rss" d="M-14.891 895.665c0 0 933.323 45.954 1006.891-937.908h-188.506c0 0 36.818 717.204-818.386 781.602v156.307zM-14.891 569.193c0 0 547.142 18.443 652.874-611.437h-188.471c0 0-22.96 372.357-464.403 455.233v156.204zM87.557 159.025c65.972 0 119.557-53.448 119.557-119.557 0-65.972-53.585-119.523-119.557-119.523-66.040 0-119.557 53.517-119.557 119.523 0 66.074 53.517 119.557 119.557 119.557z" />
<glyph unicode="&#xe605;" glyph-name="tumblr" d="M763.288 142.114c-19.035-9.081-55.463-16.983-82.656-17.701-81.937-2.206-97.843 57.567-98.561 100.972v318.771h205.639v154.999h-204.869v260.845h-150.022c-2.463 0-6.773-2.155-7.337-7.645-8.774-79.834-46.176-219.953-201.483-275.929v-132.27h103.64v-334.625c0-114.517 84.503-277.263 307.586-273.467 75.216 1.283 158.795 32.837 177.317 59.978l-49.255 146.071z" />
<glyph unicode="&#xe606;" glyph-name="twitter" d="M1024 733.488c-37.677-16.709-78.166-28.002-120.663-33.081 43.377 26.002 76.687 67.173 92.373 116.229-40.591-24.073-85.552-41.557-133.406-50.981-38.325 40.83-92.924 66.345-153.347 66.345-116.026 0-210.092-94.062-210.092-210.081 0-16.466 1.862-32.5 5.442-47.876-174.603 8.761-329.404 92.399-433.021 219.501-18.084-31.028-28.444-67.117-28.444-105.617 0-72.885 37.092-137.189 93.463-174.862-34.44 1.090-66.832 10.54-95.16 26.275-0.015-0.876-0.015-1.757-0.015-2.641 0-101.789 72.417-186.701 168.524-205.999-17.63-4.802-36.19-7.368-55.352-7.368-13.536 0-26.698 1.315-39.523 3.768 26.732-83.466 104.318-144.204 196.249-145.901-71.9-56.345-162.486-89.931-260.912-89.931-16.956 0-33.68 0.993-50.116 2.933 92.972-59.607 203.403-94.384 322.044-94.384 386.422 0 597.732 320.122 597.732 597.74 0 9.109-0.202 18.17-0.607 27.178 41.044 29.62 76.664 66.622 104.831 108.752z" />
<glyph unicode="&#xe607;" glyph-name="youtube" d="M1013.229 676.712c0 0-10 70.527-40.687 101.584-38.918 40.763-82.541 40.965-102.546 43.351-143.217 10.353-358.049 10.353-358.049 10.353h-0.445c0 0-214.828 0-358.049-10.353-20.006-2.386-63.613-2.588-102.545-43.351-30.686-31.058-40.671-101.584-40.671-101.584s-10.235-82.822-10.235-165.643v-77.645c0-82.82 10.235-165.641 10.235-165.641s9.986-70.528 40.671-101.585c38.932-40.764 90.072-39.474 112.849-43.746 81.877-7.851 347.969-10.281 347.969-10.281s215.054 0.324 358.271 10.676c20.005 2.387 63.628 2.588 102.546 43.352 30.688 31.058 40.687 101.585 40.687 101.585s10.22 82.821 10.22 165.641v77.645c0 82.821-10.22 165.643-10.22 165.643zM406.065 339.334l-0.047 287.562 276.54-144.282-276.493-143.28z" />
<glyph unicode="&#xe608;" glyph-name="arrow-left" d="M763.924-39.137l-474.255 489.697 469.258 484.557c5.53 5.693 5.53 14.93 0 20.603-5.509 5.693-14.438 5.693-19.948 0l-478.843-494.428c-5.53-5.693-5.53-14.93 0-20.603 0.43-0.43 0.983-0.614 1.434-0.983 0.676-1.495 1.475-2.949 2.683-4.178l479.662-495.309c5.53-5.693 14.479-5.693 20.009 0s5.509 14.95 0 20.644z" />
<glyph unicode="&#xe609;" glyph-name="arrow-right" d="M260.157 935.055l474.255-489.697-469.258-484.557c-5.53-5.693-5.53-14.93 0-20.603 5.509-5.693 14.438-5.693 19.948 0l478.843 494.428c5.53 5.693 5.53 14.93 0 20.603-0.43 0.43-0.983 0.614-1.434 0.983-0.676 1.495-1.475 2.949-2.683 4.178l-479.662 495.309c-5.53 5.693-14.479 5.693-20.009 0s-5.509-14.93 0-20.644z" />
<glyph unicode="&#xe60a;" glyph-name="cart" d="M1012.125 736.126c-7.947 12.456-21.519 21.504-36.237 21.504l-715.486 32.829-24.912 97.372c-5.655 20.373-22.65 33.96-44.154 33.96h-146.050c-24.912 0-45.285-20.373-45.285-45.285s20.373-45.285 45.285-45.285h110.944l124.531-484.566-30.567-126.793c-3.393-13.587 0-28.305 7.917-38.484 9.063-11.325 21.519-16.995 35.106-16.995h554.733c24.912 0 45.285 20.388 45.285 45.285 0 24.912-20.373 45.285-45.285 45.285h-495.845l12.441 52.086 452.853 21.504c16.98 1.131 31.698 11.325 38.499 26.043l158.491 339.632c6.771 12.471 5.64 28.32-2.262 41.908zM633.978 682.909l83.785-3.393-23.797-267.157-60.003-2.262v272.812zM543.423 405.542l-58.872-2.262-26.043 287.561 84.9-3.393v-281.906zM366.806 694.234l27.159-296.608-30.567-1.116-75.852 301.132 79.261-3.408zM785.683 416.867v0l22.635 258.124 96.241-4.524-118.876-253.6zM322.652 140.632c46.89 0 84.916-38.010 84.916-84.931 0-46.875-38.026-84.9-84.916-84.9s-84.916 38.010-84.916 84.9c0 46.921 38.026 84.931 84.916 84.931zM832.099 140.632c46.89 0 84.916-38.010 84.916-84.931 0-46.875-38.010-84.9-84.916-84.9s-84.916 38.010-84.916 84.9c0.015 46.921 38.026 84.931 84.916 84.931z" />
<glyph unicode="&#xe60b;" glyph-name="search" horiz-adv-x="1014" d="M407.63 144.786c-224.776 0-407.63 182.854-407.63 407.584s182.854 407.63 407.63 407.63 407.584-182.854 407.584-407.63-182.854-407.584-407.584-407.584zM407.63 858.196c-168.651 0-305.826-137.175-305.826-305.826 0-168.605 137.175-305.78 305.826-305.78 168.605 0 305.78 137.175 305.78 305.78 0 168.651-137.175 305.826-305.78 305.826zM963.522-64c-13.012 0-26.070 4.948-36.012 14.89l-305.596 305.596c-19.884 19.839-19.884 52.139 0 71.978 19.976 19.884 52.093 19.884 72.024 0l305.551-305.596c19.884-19.884 19.884-52.139 0-71.978-9.896-9.896-22.954-14.89-35.966-14.89z" />
<glyph unicode="&#xe60c;" glyph-name="user" d="M512 960c141.378 0 256.007-114.615 256.007-256.007 0-141.378-114.629-255.993-256.007-255.993s-256.007 114.615-256.007 255.993c0 141.392 114.629 256.007 256.007 256.007zM512 370.558c280.973 0 509.138-194.186 512-434.572h-1024c2.862 240.386 231.027 434.572 512 434.572z" />
<glyph unicode="&#xe60d;" glyph-name="mail" d="M1008.708 582.335v-439.49q0-36.532-26.015-62.547t-62.547-26.015h-814.772q-36.532 0-62.547 26.015t-26.015 62.547v439.49q24.355-27.122 55.905-48.156 200.372-136.164 275.096-190.962 31.55-23.248 51.2-36.255t52.307-26.569 60.886-13.561h1.107q28.229 0 60.886 13.561t52.307 26.569 51.2 36.255q94.097 68.082 275.65 190.962 31.55 21.587 55.351 48.156zM1008.708 745.068q0-43.728-27.122-83.581t-67.529-68.082q-208.121-144.467-259.044-179.892-5.535-3.875-23.524-16.882t-29.89-21.034-28.783-17.989-31.827-14.945-27.676-4.982h-1.107q-12.731 0-27.676 4.982t-31.827 14.945-28.783 17.989-29.89 21.034-23.524 16.882q-50.37 35.425-145.021 101.016t-113.47 78.876q-34.318 23.248-64.761 63.931t-30.443 75.555q0 43.174 22.971 71.957t65.591 28.783h814.772q35.978 0 62.27-26.015t26.292-62.547z" />
<glyph unicode="&#xe60e;" glyph-name="print" horiz-adv-x="1080" d="M1034.322 790.491h-236.565v140.904c0 15.8-12.805 28.605-28.605 28.605h-458.182c-15.809 0-28.605-12.805-28.605-28.605v-140.904h-236.599c-25.274 0-45.766-20.492-45.766-45.766v-537.711c0-25.274 20.492-45.766 45.766-45.766h179.536l-28.369-185.738c-1.508-9.9 1.373-19.956 7.877-27.534 6.525-7.599 16.022-11.978 26.034-11.978h618.377c0 0 0.179 0 0.234 0 18.95 0 34.324 15.387 34.324 34.324 0 3.139-0.424 6.213-1.205 9.117l-27.789 181.806h179.525c25.274 0 45.766 20.492 45.766 45.766v537.713c0.013 25.276-20.479 45.766-45.756 45.766zM339.573 902.792h400.973v-112.299h-400.973v112.299zM270.834 4.617l46.718 305.821h445.008l46.718-305.821h-538.443zM988.558 252.782h-147.76l-14.838 97.165c-2.569 16.76-16.973 29.141-33.934 29.141h-503.939c-16.95 0-31.375-12.381-33.944-29.141l-14.838-97.165h-147.771v446.176h897.013v-446.176h0.013zM249.606 546.416h110.786c18.95 0 34.324 15.364 34.324 34.324 0 18.956-15.374 34.324-34.324 34.324h-110.786c-18.95 0-34.324-15.368-34.324-34.324-0.002-18.958 15.362-34.324 34.324-34.324z" />
<glyph unicode="&#xe60f;" glyph-name="star" horiz-adv-x="951" d="M950.796 590.244q0-12.571-14.856-27.427l-207.415-202.273 49.14-285.696q0.571-4 0.571-11.428 0-11.999-6-20.284t-17.427-8.285q-10.856 0-22.856 6.857l-256.555 134.849-256.555-134.849q-12.571-6.857-22.856-6.857-11.999 0-17.999 8.285t-6 20.284q0 3.428 1.143 11.428l49.14 285.696-207.987 202.273q-14.285 15.428-14.285 27.427 0 21.142 31.998 26.284l286.839 41.712 128.563 259.983q10.856 23.427 27.998 23.427t27.998-23.427l128.563-259.983 286.839-41.712q31.998-5.143 31.998-26.284z" />
<glyph unicode="&#xe610;" glyph-name="star-half" horiz-adv-x="951" d="M677.671 413.112l146.848 142.848-241.127 35.426-17.142 34.284-90.851 183.988v-550.25l33.712-17.713 181.703-95.994-34.284 202.844-6.857 37.712zM935.94 562.817l-207.415-202.273 49.14-285.696q2.857-18.856-3.428-29.427t-19.427-10.571q-9.714 0-22.856 6.857l-256.555 134.849-256.555-134.849q-13.142-6.857-22.856-6.857-13.142 0-19.427 10.571t-3.428 29.427l49.14 285.696-207.987 202.273q-18.285 18.285-13.142 33.998t30.855 19.713l286.839 41.712 128.563 259.983q11.428 23.427 27.998 23.427 15.999 0 27.998-23.427l128.563-259.983 286.839-41.712q25.713-4 30.855-19.713t-13.713-33.998z" />
<glyph unicode="&#xe611;" glyph-name="menu" d="M128 640h768c35.328 0 64 28.672 64 64s-28.672 64-64 64h-768c-35.328 0-64-28.672-64-64s28.672-64 64-64zM896 512h-768c-35.328 0-64-28.672-64-64s28.672-64 64-64h768c35.328 0 64 28.672 64 64s-28.672 64-64 64zM896 256h-768c-35.328 0-64-28.672-64-64s28.672-64 64-64h768c35.328 0 64 28.672 64 64s-28.672 64-64 64z" />
<glyph unicode="&#xe612;" glyph-name="close-circle" d="M512 894c-247.4 0-448-200.6-448-448s200.6-448 448-448c247.4 0 448 200.6 448 448s-200.6 448-448 448zM728.6 295c3-3 4.6-7 4.6-11.2s-1.6-8.4-4.6-11.2l-43.2-43.4c-3.2-3.2-7.2-4.6-11.2-4.6s-8.2 1.6-11.2 4.6l-151 151.2-150.8-151.4c-3-3.2-7.2-4.6-11.2-4.6s-8.2 1.6-11.2 4.6l-43.2 43.4c-3 3-4.6 7-4.6 11.2s1.6 8.4 4.6 11.2l151.4 152-151.8 150c-6.2 6.2-6.2 16.4 0 22.6l43.2 43.4c3 3 7 4.6 11.2 4.6s8.2-1.6 11.2-4.6l151.4-149.4 151.4 149.4c3 3 7 4.6 11.2 4.6s8.2-1.6 11.2-4.6l43.2-43.4c6.2-6.2 6.2-16.4 0-22.6l-151.8-150 151.2-151.8z" />
<glyph unicode="&#xe613;" glyph-name="close" d="M949.12 788.693c13.355-13.355 13.355-35.243 0-48.597l-267.776-267.52c-13.355-13.312-13.355-35.243 0-48.64l267.648-267.605c13.355-13.355 13.355-35.243 0-48.64l-97.493-97.152c-13.397-13.312-35.328-13.312-48.725 0l-267.563 267.563c-13.355 13.355-35.328 13.355-48.683 0l-267.776-267.392c-13.355-13.355-35.328-13.355-48.683 0l-97.365 97.28c-13.355 13.355-13.355 35.243 0 48.64l267.861 267.477c13.355 13.312 13.355 35.243 0 48.64l-267.648 267.648c-13.397 13.355-13.397 35.285 0 48.64l97.451 97.195c13.44 13.312 35.328 13.312 48.725-0.043l267.52-267.52c13.397-13.397 35.328-13.397 48.683-0.043l267.776 267.392c13.312 13.312 35.243 13.312 48.683 0l97.365-97.323z" />
<glyph unicode="&#xe614;" glyph-name="linkedin" d="M948.38 960h-872.716c-41.789 0-75.66-32.838-75.66-73.367v-877.234c0-40.532 33.883-73.398 75.66-73.398h872.716c41.78 0 75.612 32.888 75.612 73.398v877.234c0 40.518-33.833 73.367-75.612 73.367zM310.449 102.842h-154.717v462.323h154.717v-462.323zM233.106 628.327h-1.040c-51.884 0-85.516 35.483-85.516 79.905 0 45.317 34.621 79.838 87.533 79.838 52.917 0 85.466-34.511 86.495-79.838 0-44.432-33.566-79.905-87.471-79.905zM868.159 102.842h-154.667v247.359c0 62.154-22.41 104.565-78.343 104.565-42.789 0-68.189-28.612-79.343-56.236-4.133-9.866-5.157-23.665-5.157-37.444v-258.234h-154.639c0 0 2.024 418.961 0 462.321h154.663v-65.544c20.532 31.495 57.221 76.422 139.354 76.422 101.801 0 178.132-66.039 178.132-208.11v-265.098zM549.673 498.16c0.264 0.433 0.633 0.955 1 1.462v-1.462h-1z" />
<glyph unicode="&#xe615;" glyph-name="minus" d="M0 543.999v-192c0-17.672 14.327-31.999 32.001-31.999h960.001c17.672 0 32.001 14.327 32.001 31.999v192c0 17.672-14.329 32.001-32.001 32.001h-960.001c-17.674 0-32.001-14.327-32.001-32.001z" />
<glyph unicode="&#xe616;" glyph-name="plus" d="M992.001 576h-352.002v352c0 17.674-14.327 32.001-31.999 32.001h-192c-17.674 0-32.001-14.327-32.001-32.001v-352h-352c-17.674 0-32.001-14.327-32.001-32.001v-192c0-17.672 14.327-31.999 32.001-31.999h352v-352.002c0-17.672 14.327-31.999 32.001-31.999h192c17.672 0 32.001 14.327 32.001 31.999v352.002h352c17.672 0 32.001 14.327 32.001 31.999v192c-0.002 17.674-14.329 32.001-32.001 32.001z" />
<glyph unicode="&#xe617;" glyph-name="stumble-upon" d="M877.714 448.001v-146.286c0-40.301-32.84-73.142-73.142-73.142s-73.144 32.84-73.144 89.161v141.823l-77.751-27.428-68.534 27.428v-141.75c0-137.069 98.45-235.521 219.427-235.521s219.427 98.45 219.427 219.427v146.286h-146.283zM585.143 539.429l68.608-27.428 77.678 27.428v70.949c0 105.034-98.45 203.336-219.427 203.336s-219.427-98.376-219.427-219.427v-292.571c0-40.301-32.84-73.142-73.142-73.142s-73.142 32.84-73.142 73.142v146.286h-146.29v-146.286c0-120.978 98.45-219.427 219.427-219.427s219.427 98.45 219.427 219.427v292.571c0 40.301 32.84 73.142 73.142 73.142 40.228 0 73.142-32.769 73.142-57.051v-70.949z" />
<glyph unicode="&#xe618;" glyph-name="heart" d="M512-23.040l-71.68 71.68c-266.24 235.52-440.32 394.24-440.32 588.8 0 158.72 122.88 281.6 281.6 281.6 87.040 0 174.080-40.96 230.4-107.52 56.32 66.56 143.36 107.52 230.4 107.52 158.72 0 281.6-122.88 281.6-281.6 0-194.56-174.080-353.28-440.32-588.8l-71.68-71.68z" />
<glyph unicode="&#xe900;" glyph-name="apple-pay" horiz-adv-x="2191" d="M574.259 539.341c1.024-119.603 108.544-159.744 109.568-160.154-1.024-2.662-17.408-56.73-56.73-112.64-33.997-48.128-69.632-96.256-124.928-97.075-54.886-1.024-72.499 31.334-135.168 31.334-62.464 0-81.92-30.31-133.734-32.358-53.862-2.048-94.822 52.224-129.024 100.352-70.042 98.099-123.699 277.504-51.61 398.336 35.84 60.006 99.738 98.304 169.165 99.123 52.634 1.024 102.4-34.406 134.758-34.406 32.768 0 92.979 42.598 156.672 36.25 26.624-1.024 101.376-10.24 149.504-78.438-4.096-2.048-89.293-50.586-88.064-150.733zM471.040 833.638c28.672 33.382 48.128 79.872 43.008 126.362-41.37-1.638-91.136-26.624-120.832-60.006-26.214-29.696-49.152-77.005-43.008-122.47 45.67-3.686 92.57 22.528 120.832 55.91zM884.326 890.778c21.299 3.686 44.646 6.758 70.042 9.626 25.6 2.662 53.658 4.096 83.968 4.096 44.032 0 81.92-5.12 113.459-15.36 31.744-10.24 57.754-25.19 78.234-44.442 17.408-16.998 31.13-37.274 40.96-60.826 9.83-23.347 14.746-50.381 14.746-80.896 0-36.864-6.758-69.632-20.48-97.28-13.312-27.853-31.744-51.2-55.296-70.042-22.938-18.842-50.79-32.768-82.739-42.189-32.154-9.216-67.174-13.722-105.062-13.722-33.997 0-62.874 2.458-86.016 7.373v-307.2h-51.61l-0.205 710.861zM935.526 531.968c12.698-3.482 26.624-6.144 41.779-7.373 15.36-1.434 31.744-2.048 49.152-2.048 65.536 0 116.736 14.746 152.576 44.646 36.045 29.901 54.067 73.728 54.067 131.482 0 27.648-4.506 52.019-13.926 72.499s-22.938 37.683-40.346 50.79c-17.613 13.107-38.298 23.142-62.464 29.901-23.962 6.758-50.586 10.24-79.872 10.24-23.142 0-43.008-1.024-60.006-2.662-16.794-2.048-30.31-4.096-40.55-6.144l-0.41-321.331zM1694.515 301.363c0-20.48 0.41-41.37 1.024-62.054 0.614-20.48 2.662-40.346 6.144-59.392h-47.923l-7.578 72.499h-2.458c-6.554-10.24-14.95-20.070-25.19-29.901-10.24-10.24-21.914-19.046-35.43-27.238s-28.672-14.95-45.875-19.866c-17.203-4.915-36.045-7.373-56.32-7.373-25.6 0-48.128 4.096-67.584 12.288-19.046 8.192-34.816 18.842-47.104 31.949-12.698 13.107-21.914 28.262-28.058 45.466-6.144 16.998-9.421 34.202-9.421 51.2 0 60.621 26.214 107.11 78.234 139.878 52.224 32.768 130.662 48.538 235.52 47.104v13.517c0 13.722-1.024 29.082-3.686 46.694-2.458 17.408-8.192 33.997-16.998 49.562-8.192 15.565-21.504 28.672-38.912 39.526-17.613 10.65-41.37 15.974-71.27 15.974-22.528 0-45.056-3.072-67.174-9.83-22.528-6.758-42.598-16.384-60.826-28.672l-16.384 37.683c23.347 15.565 47.514 26.624 72.294 33.587 24.576 6.758 50.586 10.24 77.824 10.24 36.25 0 65.946-6.144 88.883-18.432 22.938-11.878 40.96-27.443 54.067-46.694s22.118-40.96 26.624-64.717c4.915-23.757 7.373-47.514 7.373-71.066l0.205-201.933zM1643.315 453.939c-28.058 0.614-56.934-0.41-87.245-3.277-30.106-2.867-58.163-9.216-83.558-18.842-25.6-9.421-46.694-23.552-63.488-42.189-16.794-18.432-25.19-43.008-25.19-73.728 0-36.25 10.65-62.874 31.744-79.872 21.094-17.203 45.056-25.805 71.066-25.805 20.89 0 39.936 2.867 56.73 8.602s31.334 13.312 43.622 22.938c12.288 9.626 22.938 20.48 31.334 32.768 8.192 11.878 14.746 24.576 19.046 37.274 3.686 14.336 5.53 24.576 5.53 30.72l0.41 111.411zM1795.072 692.122l133.12-333.21c7.578-18.432 14.336-37.478 20.89-57.344 6.554-19.251 12.288-37.274 17.613-53.658h2.048l17.818 52.634c6.144 19.866 13.722 39.936 21.709 60.621l124.518 330.957h54.682l-151.552-375.808c-15.565-39.936-29.901-76.186-43.418-108.544s-27.034-61.44-40.96-87.45c-13.926-26.010-27.853-49.152-41.984-69.018-14.336-19.866-30.106-37.274-47.718-52.224-20.48-17.818-38.912-30.72-56.32-38.912-16.998-8.192-28.672-13.517-34.406-15.565l-17.408 41.574c13.107 5.734 27.648 13.107 43.622 22.528 16.384 9.216 31.744 21.299 47.104 36.25 13.107 12.698 27.443 29.696 43.008 50.79 15.77 20.89 29.901 46.285 42.189 76.39 4.71 11.264 6.758 18.842 6.758 22.528 0 4.71-2.048 12.288-6.554 22.528l-189.030 474.931h54.272z" />
<glyph unicode="&#xe901;" glyph-name="loop" d="M889.664 793.696c-93.6 102.208-228.16 166.304-377.696 166.304-282.784 0-512-229.216-512-512h96c0 229.76 186.24 416 416 416 123.008 0 233.536-53.408 309.696-138.304l-149.696-149.696h352v352l-134.336-134.304zM928 448c0-229.76-186.24-416-416-416-123.008 0-233.536 53.408-309.696 138.304l149.696 149.696h-352v-352l134.304 134.304c93.6-102.208 228.16-166.304 377.696-166.304 282.784 0 512 229.216 512 512h-96z" />
<glyph unicode="&#xe902;" glyph-name="cog" d="M933.792 349.76c-53.728 93.056-21.408 212.288 72.16 266.496l-100.64 174.304c-28.736-16.864-62.176-26.528-97.856-26.528-107.552 0-194.72 87.744-194.72 196h-201.248c0.256-33.408-8.064-67.296-25.952-98.24-53.728-93.056-173.152-124.704-266.848-70.752l-100.608-174.304c28.96-16.48 54.048-40.576 71.872-71.488 53.632-92.896 21.504-211.936-71.712-266.208l100.64-174.304c28.64 16.704 61.92 26.24 97.408 26.24 107.2 0 194.144-87.2 194.688-194.944h201.248c-0.096 33.088 8.288 66.56 25.952 97.216 53.632 92.896 172.768 124.608 266.4 71.008l100.64 174.304c-28.768 16.48-53.696 40.512-71.424 71.232zM512 240.672c-114.496 0-207.328 92.832-207.328 207.328s92.832 207.328 207.328 207.328c114.496 0 207.328-92.832 207.328-207.328s-92.832-207.328-207.328-207.328z" />
<glyph unicode="&#xe903;" glyph-name="mastercard" horiz-adv-x="2048" d="M1878.752 448c0 93.088-22.624 179.104-67.712 258.112-48.032 76.16-110.016 138.176-186.176 186.176-84.64 45.088-170.752 67.712-258.112 67.712-115.744 0-218.656-35.296-308.896-105.792 81.792-73.408 135.424-162.272 160.8-266.592h-46.56c-22.624 90.24-71.936 170.656-148.096 241.184-76.16-70.528-125.536-150.944-148.096-241.184h-46.56c25.408 104.32 78.912 193.184 160.8 266.592-90.336 70.464-193.248 105.792-308.896 105.792-87.456 0-173.472-22.624-258.112-67.712-76.16-48-138.24-110.016-186.176-186.176-45.152-78.976-67.712-165.024-67.712-258.112s22.56-179.168 67.712-258.112c47.936-76.16 110.016-138.24 186.176-186.176 84.608-45.152 170.656-67.712 258.112-67.712 115.648 0 218.528 35.232 308.896 105.792-73.408 64.864-125.536 146.624-156.576 245.408h46.56c28.128-84.64 76.16-158.016 143.872-220.032 67.712 62.016 115.648 135.424 143.872 220.032h46.56c-31.104-98.784-83.232-180.544-156.576-245.408 90.272-70.528 193.152-105.792 308.896-105.792 87.392 0 173.472 22.56 258.112 67.712 76.16 47.936 138.144 110.016 186.176 186.176 45.056 78.944 67.712 165.024 67.712 258.112zM393.536 570.72h80.416l-42.304-245.408h-50.784l29.6 186.176-67.712-186.176h-38.080v186.176l-33.856-186.176h-50.784l42.304 245.408h76.16v-152.32l55.008 152.32zM630.464 469.152c0-11.296-1.472-23.968-4.256-38.080-2.816-19.776-5.728-38.080-8.448-55.008-2.816-16.928-5.728-29.6-8.448-38.080v-12.704h-42.304v21.152c-11.296-16.928-29.6-25.408-55.008-25.408-14.176 0-25.408 4.256-33.856 12.704-8.448 11.232-12.704 25.408-12.704 42.304 0 25.408 6.976 43.712 21.152 55.008 19.68 14.080 43.712 21.152 71.936 21.152h21.152v12.736c0 11.232-11.296 16.928-33.856 16.928-14.176 0-32.448-2.816-55.008-8.448 2.752 11.232 5.632 25.408 8.448 42.304 22.56 8.448 42.304 12.704 59.232 12.704 47.968 0 71.936-19.776 71.936-59.232zM571.264 414.144h-12.704c-28.224 0-42.304-9.92-42.304-29.6 0-14.144 5.632-21.152 16.928-21.152 11.232 0 19.68 4.256 25.408 12.704 8.448 8.448 12.704 21.152 12.704 38.080zM778.592 524.16l-8.448-46.56c-8.448 2.752-21.152 4.224-38.080 4.224s-25.408-5.696-25.408-16.928c0-5.696 1.408-9.92 4.256-12.704l16.928-8.448c25.408-14.144 38.080-32.448 38.080-55.008 0-45.152-26.88-67.712-80.416-67.712-25.408 0-43.776 1.408-55.008 4.256 2.752 11.232 5.632 26.784 8.448 46.56 22.56-5.696 38.080-8.448 46.56-8.448 19.68 0 29.6 5.632 29.6 16.928 0 5.632-1.472 9.856-4.256 12.704-5.728 5.632-12.704 9.856-21.152 12.704-25.408 11.232-38.080 29.6-38.080 55.008 0 45.088 25.408 67.712 76.16 67.712 25.408-0.032 42.336-1.504 50.816-4.256zM858.976 524.16h25.408l-4.256-50.784h-29.6c0-14.144-1.472-26.848-4.256-38.080 0-2.816-0.704-8.448-2.112-16.928-1.472-8.448-3.616-14.144-6.336-16.928v-16.928c0-11.296 5.632-16.928 16.928-16.928 5.632 0 11.232 1.408 16.928 4.256l-8.448-46.56c-8.448-2.816-21.152-4.256-38.080-4.256-28.224 0-42.304 14.080-42.304 42.304 0 16.928 2.752 35.232 8.448 55.008l21.152 135.424h50.784l-4.192-29.664zM1049.408 456.448c0-19.776-1.472-36.672-4.256-50.784h-105.792c0-14.144 2.752-23.968 8.448-29.6 8.448-8.448 21.152-12.704 38.080-12.704s35.232 5.632 55.008 16.928l-8.448-50.784c-14.176-5.696-32.448-8.448-55.008-8.448-59.264 0-88.864 29.6-88.864 88.864 0 36.608 8.448 64.864 25.408 84.64 16.928 22.56 38.080 33.856 63.456 33.856 22.56 0 40.832-7.072 55.008-21.152 11.2-11.296 16.928-28.256 16.928-50.784zM943.584 448h59.264v12.704l-4.256 8.448c0 2.752-1.472 5.632-4.256 8.448-2.816 0-5.728 1.376-8.448 4.224h-8.448c-16.928 0-28.224-11.296-33.856-33.856zM1180.576 524.16c-2.816-2.816-9.952-22.624-21.152-59.264-11.296 2.752-21.152-4.224-29.6-21.152-8.448-31.072-15.52-70.528-21.152-118.464h-55.008l4.256 12.704c11.232 78.944 19.68 141.024 25.408 186.176h50.784l-4.256-29.6c8.448 14.080 16.928 22.56 25.408 25.408 8.448 8.448 16.896 9.856 25.376 4.224zM1358.272 562.272l-8.448-50.784c-16.928 8.448-32.448 12.704-46.56 12.704-22.624 0-39.552-8.448-50.784-25.408-11.296-14.144-16.928-36.672-16.928-67.712 0-19.776 4.256-33.856 12.704-42.304 8.448-11.296 19.68-16.928 33.856-16.928 14.080 0 29.6 4.256 46.56 12.704l-8.448-55.008c-11.296-5.696-26.88-8.448-46.56-8.448-28.224 0-50.784 9.856-67.712 29.6-16.928 16.928-25.408 42.304-25.408 76.16 0 42.304 11.232 77.568 33.856 105.792 19.68 28.16 47.936 42.304 84.64 42.304 14.080-0.032 33.856-4.256 59.232-12.704zM1510.592 469.152c0-2.816-0.704-8.448-2.112-16.928-1.472-8.448-2.112-15.52-2.112-21.152-2.816-14.144-5.728-33.184-8.448-57.12-2.816-23.968-5.728-40.192-8.448-48.672h-42.304v21.152c-11.296-16.928-29.6-25.408-55.008-25.408-14.176 0-25.408 4.256-33.856 12.704-8.448 11.232-12.704 25.408-12.704 42.304 0 25.408 6.976 43.712 21.152 55.008 19.68 14.080 42.304 21.152 67.712 21.152h21.152c2.752 2.752 4.256 7.008 4.256 12.704 0 11.232-11.296 16.928-33.856 16.928-14.176 0-32.448-2.816-55.008-8.448 0 11.232 2.752 25.408 8.448 42.304 22.56 8.448 42.304 12.704 59.264 12.704 47.936 0 71.904-19.776 71.904-59.264zM1451.36 414.144h-12.704c-28.224 0-42.304-9.92-42.304-29.6 0-14.144 5.632-21.152 16.928-21.152 11.232 0 19.68 4.256 25.408 12.704 8.448 8.448 12.704 21.152 12.704 38.080zM1641.792 524.16c-11.296-14.144-18.4-33.856-21.152-59.264-11.296 2.752-21.152-4.224-29.6-21.152-5.728-16.928-12.704-56.448-21.152-118.464h-55.008l4.256 12.704c11.232 62.016 19.68 124.096 25.408 186.176h50.784c0-11.296-1.472-21.152-4.256-29.6 8.448 14.080 16.928 22.56 25.408 25.408 11.2 5.6 19.648 6.976 25.376 4.224zM1772.96 570.72h55.008l-42.304-245.44h-50.784l4.256 16.928c-11.296-14.144-26.88-21.152-46.56-21.152-22.624 0-38.080 7.008-46.56 21.152-14.176 19.712-21.152 39.488-21.152 59.264 0 36.608 9.856 66.24 29.6 88.864 14.080 22.56 33.856 33.856 59.264 33.856 16.928 0 33.856-8.448 50.784-25.408l8.448 71.936zM1751.808 439.552c0 25.408-9.952 38.080-29.6 38.080-11.296 0-21.152-7.072-29.6-21.152-5.728-8.448-8.448-23.968-8.448-46.56 0-25.408 8.448-38.080 25.408-38.080 11.232 0 21.152 5.632 29.6 16.928 8.448 11.232 12.672 28.16 12.672 50.784z" />
<glyph unicode="&#xe904;" glyph-name="americanexpress" horiz-adv-x="2048" d="M93.088-64v547.552h89.696l20.192 49.28h44.448l20.192-49.28h176.16v37.184l15.36-37.184h91.296l16.192 37.984v-37.984h437.152v80l8.096 0.832c7.264 0 8.064-5.664 8.064-11.328v-69.504h225.472v18.56c52.544-27.456 124.448-18.56 179.392-18.56l20.192 49.28h45.248l20.192-49.28h183.456v46.848l27.456-46.848h147.072v305.472h-145.408v-35.552l-20.192 35.552h-149.504v-35.552l-18.592 35.552h-201.216c-29.888 0-61.408-3.232-88.096-17.792v17.792h-139.008v-17.792c-16.16 14.528-37.984 17.792-58.976 17.792h-507.488l-34.72-78.368-34.752 78.368h-160v-35.552l-17.792 35.552h-136.544l-63.040-144.64v315.648h1861.824v-547.552h-96.96c-22.624 0-46.848-4.032-65.44-17.792v17.792h-143.040c-20.192 0-47.68-3.2-63.040-17.792v17.792h-255.36v-17.792c-19.36 13.728-47.68 17.792-70.304 17.792h-168.896v-17.792c-16.96 16.16-51.712 17.792-73.536 17.792h-189.088l-43.616-46.848-40.416 46.848h-282.016v-305.472h277.12l44.448 47.68 42.016-47.68h170.496v71.936h16.96c24.256 0 49.28 0.8 72.736 10.496v-82.432h140.608v80h6.464c8.064 0 9.696-0.832 9.696-9.696v-70.304h427.456c23.456 0 52.544 4.864 71.104 19.392v-19.392h135.776c25.856 0 53.344 2.432 76.768 13.728v-184.736h-1861.792zM657.952 527.2h-53.344v171.328l-75.968-171.328h-46.048l-75.936 171.328v-171.328h-106.688l-20.192 48.48h-109.12l-20.192-48.48h-56.576l93.728 218.976h77.568l88.896-207.68v207.68h85.664l68.704-148.672 62.208 148.672h87.264v-218.976zM261.184 620.928l-36.384 87.264-35.552-87.264h71.936zM951.264 223.36v-73.536h-101.824l-64.64 72.736-67.072-72.736h-206.88v218.976h210.080l64.64-71.936 66.272 71.936h167.264c49.312 0 88.096-16.992 88.096-71.936 0-88.064-96.16-73.536-155.968-73.536zM750.848 259.744l-56.576 63.84h-131.712v-39.616h114.752v-44.448h-114.752v-43.648h128.48l59.776 63.84zM872.064 527.2h-175.36v218.976h175.36v-46.048h-122.848v-39.616h119.616v-44.448h-119.616v-43.648h122.848v-45.248zM898.752 170.016v175.36l-80-86.464 80-88.896zM1081.376 628.192c29.888-10.496 34.752-29.088 34.752-58.176v-42.848h-52.544c-0.832 46.848 11.296 79.2-46.848 79.2h-56.576v-79.2h-51.712v219.008l123.648-0.832c42.016 0 86.432-6.464 86.432-58.176 0-25.056-13.728-49.28-37.184-58.976zM1019.136 323.552h-67.872v-55.776h67.072c18.592 0 33.12 8.896 33.12 29.088 0 19.392-14.528 26.656-32.32 26.656zM1026.4 700.128h-66.24v-48.512h65.44c17.792 0 34.752 4.032 34.752 25.056 0 20.224-17.792 23.456-33.952 23.456zM1305.216 251.648c29.088-10.496 34.752-29.888 34.752-58.176v-43.648h-52.544v36.384c0 37.184-12.128 43.648-46.848 43.648h-55.776v-80h-52.544v218.976h124.448c41.216 0 85.664-7.296 85.664-59.008 0-24.224-12.928-48.48-37.184-58.176zM1201.76 527.2h-53.344v218.976h53.344v-218.976zM1251.072 323.552h-66.272v-49.312h65.44c17.792 0 34.72 4.032 34.72 25.856 0 20.192-17.76 23.424-33.92 23.424zM1821.568 527.2h-74.336l-98.592 164.032v-164.032h-106.688l-21.024 48.48h-108.288l-20.192-48.48h-60.608c-71.936 0-104.256 37.184-104.256 107.488 0 73.536 33.12 111.52 107.488 111.52h50.912v-47.712c-54.944 0.832-105.056 12.928-105.056-62.208 0-37.184 8.896-63.040 50.912-63.040h23.424l74.336 172.128h78.4l88.096-206.88v206.88h80l92.128-151.904v151.904h53.344v-218.176zM1546.016 149.824h-174.56v218.976h174.56v-45.248h-122.016v-39.616h119.616v-44.448h-119.616v-43.648l122.016-0.8v-45.248zM1503.2 620.928l-35.552 87.264-36.384-87.264h71.936zM1679.36 149.824h-101.824v46.848h101.824c12.928 0 27.456 3.232 27.456 20.192 0 46.848-134.944-17.792-134.944 86.464 0 44.448 33.92 65.44 74.336 65.44h105.056v-46.048h-96.16c-13.728 0-29.088-2.432-29.088-20.192 0-47.68 135.776 21.824 135.776-83.232 0.032-51.68-35.552-69.504-82.4-69.504zM1954.912 178.112c-15.36-22.624-45.248-28.288-71.104-28.288h-101.024v46.848h101.024c12.928 0 26.656 4.032 26.656 20.192 0 46.048-134.944-17.792-134.944 86.464 0 44.448 34.752 65.44 75.168 65.44h104.256v-46.048h-95.36c-14.528 0-29.088-2.432-29.088-20.192 0-38.784 91.328 0.8 124.448-42.816v-81.6z" />
<glyph unicode="&#xe905;" glyph-name="paypal" horiz-adv-x="2048" d="M1128.16 573.504h-76.672c-7.328 0-14.208-3.648-18.304-9.696l-105.792-155.776-44.8 149.696c-2.816 9.344-11.456 15.776-21.216 15.776h-75.36c-9.088 0-15.52-8.96-12.576-17.536l84.416-247.84-79.392-112.032c-6.24-8.8 0.064-20.96 10.848-20.96h76.608c7.264 0 14.048 3.552 18.208 9.504l254.976 368.032c6.112 8.8-0.192 20.864-10.912 20.864zM615.584 425.024c-7.36-43.584-41.952-72.832-86.112-72.832-22.112 0-39.84 7.136-51.232 20.608-11.296 13.344-15.52 32.384-11.968 53.568 6.848 43.2 42.016 73.408 85.472 73.408 21.664 0 39.264-7.2 50.848-20.8 11.68-13.696 16.288-32.864 12.928-53.952zM721.888 573.504h-76.288c-6.528 0-12.096-4.736-13.12-11.232l-3.328-21.312-5.312 7.712c-16.544 23.968-53.344 32-90.144 32-84.288 0-156.256-63.872-170.272-153.472-7.296-44.672 3.040-87.392 28.416-117.184 23.264-27.392 56.48-38.784 96.064-38.784 67.936 0 105.6 43.616 105.6 43.616l-3.392-21.184c-1.28-8.064 4.96-15.328 13.12-15.328h68.704c10.912 0 20.16 7.904 21.888 18.688l41.248 261.152c1.28 8.032-4.96 15.328-13.12 15.328zM264.128 571.68c-8.704-57.184-52.352-57.184-94.624-57.184h-24.032l16.864 106.752c0.992 6.464 6.56 11.2 13.12 11.2h11.040c28.768 0 55.904 0 69.92-16.352 8.384-9.824 10.912-24.352 7.744-44.416zM245.76 720.864h-159.328c-10.912 0-20.16-7.936-21.888-18.688l-64.416-408.48c-1.28-8.064 4.96-15.328 13.12-15.328h76.096c10.88 0 20.16 7.936 21.856 18.688l17.376 110.208c1.696 10.784 10.976 18.688 21.856 18.688h50.4c104.928 0 165.504 50.784 181.312 151.424 7.136 44 0.288 78.592-20.32 102.784-22.624 26.624-62.784 40.704-116.096 40.704zM1948.032 709.664l-65.376-415.936c-1.28-8.064 4.96-15.328 13.12-15.328h65.76c10.88 0 20.16 7.936 21.856 18.688l64.48 408.48c1.28 8.064-4.96 15.328-13.12 15.328h-73.568c-6.56-0.032-12.128-4.736-13.12-11.232zM1751.808 425.024c-7.36-43.584-41.952-72.832-86.112-72.832-22.112 0-39.84 7.136-51.232 20.608-11.296 13.344-15.52 32.384-11.968 53.568 6.848 43.2 42.016 73.408 85.472 73.408 21.664 0 39.264-7.2 50.848-20.8 11.68-13.696 16.288-32.864 12.928-53.952zM1858.112 573.504h-76.288c-6.528 0-12.096-4.736-13.12-11.232l-3.328-21.312-5.344 7.712c-16.512 23.968-53.344 32-90.112 32-84.288 0-156.256-63.872-170.272-153.472-7.296-44.672 3.040-87.392 28.416-117.184 23.264-27.392 56.48-38.784 96.064-38.784 67.936 0 105.6 43.616 105.6 43.616l-3.392-21.184c-1.28-8.064 4.96-15.328 13.12-15.328h68.704c10.912 0 20.16 7.904 21.888 18.688l41.248 261.152c1.28 8.064-4.992 15.328-13.12 15.328zM1400.352 571.68c-8.704-57.184-52.352-57.184-94.624-57.184h-24.032l16.864 106.752c0.992 6.464 6.56 11.2 13.12 11.2h11.040c28.768 0 55.904 0 69.92-16.352 8.352-9.824 10.88-24.352 7.712-44.416zM1381.984 720.864h-159.328c-10.912 0-20.16-7.936-21.888-18.688l-64.416-408.48c-1.28-8.064 4.992-15.328 13.12-15.328h81.728c7.616 0 14.112 5.536 15.296 13.056l18.304 115.808c1.696 10.784 10.976 18.688 21.856 18.688h50.4c104.928 0 165.504 50.784 181.312 151.424 7.136 44 0.288 78.592-20.32 102.784-22.624 26.624-62.784 40.704-116.064 40.704z" />
<glyph unicode="&#xe906;" glyph-name="visa" horiz-adv-x="2048" d="M344.992 713.984c-8.032 41.056-39.008 54.016-75.008 54.016h-268.032l-1.952-12.96c183.968-47.008 335.008-147.040 403.040-336.032l-58.016 295.008zM420 329.984l-16.992 88.992c-35.072 93.024-120.064 179.008-216.064 218.016l135.008-510.048h175.008l261.024 641.024h-176.032l-161.984-438.016zM887.040 126.048l103.936 641.952h-165.984l-104.032-641.952h166.048zM1340 779.008c-164 0-278.944-87.040-279.968-211.968-1.024-92.064 82.016-143.008 144.992-174.048 65.024-30.976 86.016-51.968 86.016-79.968 0-43.008-51.968-62.048-98.976-62.048-66.976 0-103.008 8.032-156 33.024l-22.016 11.008-23.008-143.968c39.008-18.016 109.984-34.048 184.992-34.048 173.984-1.024 287.040 86.016 289.024 218.976 0 73.024-44.96 128-140.032 174.048-57.952 28.928-92.928 50.016-92.928 79.968 0 26.976 29.952 55.040 94.976 55.040 54.016 0.928 93.952-10.048 124-24.064l15.008-7.936 22.944 139.008c-33.024 12.992-84.992 27.008-148.992 27.008zM1786.016 768c-40.032 0-70.048-12.032-87.040-54.016l-246.016-587.968h173.984c28.064 78.944 35.072 96 35.072 96 18.944 0 188 0 211.968 0 0 0 5.024-22.016 19.968-96h154.016l-133.984 641.952h-128zM1708.96 353.984c0 0 13.984 37.024 66.048 179.008-1.024-1.024 13.984 37.024 22.016 61.024l11.968-55.040c30.976-152.992 38.048-184.992 38.048-184.992-26.016 0-105.056 0-138.080 0z" />
<glyph unicode="&#xe907;" glyph-name="interac" horiz-adv-x="2048" d="M433.792-48.416v-132.224c-22.56-6.464-64.48-22.56-77.408-22.56-38.72 0-61.28 35.456-61.28 70.944 0 54.816 99.968 67.712 138.656 83.84v0zM704.704 87.008v0 641.728c0 32.224-22.56 41.92-51.584 35.488-41.92-12.896-280.608-93.504-406.4-145.12-35.488-16.128-41.92-35.456-41.92-51.584v-622.4c0-38.72 45.152-35.488 54.816-32.256 29.024 6.464 167.712 51.584 187.072 61.28v-503.072c0-64.512 64.512-90.304 90.304-164.48h322.528v544.992c0 61.28-109.664 177.376-154.816 235.424zM308.032-51.648c-12.896-6.464-45.152-19.36-58.048-19.36s-25.792 3.232-25.792 19.36v612.736c0 32.256 48.384 45.152 83.872 58.048v-670.752zM682.112 109.6c0-19.36-38.72-35.456-61.28-41.92v-280.576h-12.896v354.72c0 48.384-54.816 61.28-80.64 61.28-38.72 0-80.64-35.456-80.64-61.28v-141.888c-12.896-6.464-22.56-9.696-38.72-16.128v673.984l245.12 83.84c22.56 6.464 29.024-12.896 29.024-25.792v-606.272zM308.032 619.104v-670.752l99.968 35.488 3.232 673.984zM465.28 497.92l73.312 22.176v-46.848c10.944 22.496 22.048 39.456 33.248 51.072s24.864 19.936 40.96 24.8c21.76 6.592 38.784 2.56 51.104-11.84 12.256-14.432 18.4-40.64 18.4-78.592v-183.168l-79.040-23.936v158.464c0 18.048-2.368 30.112-7.136 36.192-4.8 6.144-11.488 7.808-20.096 5.216-9.504-2.88-17.28-10.336-23.136-22.208-5.952-11.904-8.896-31.040-8.896-57.248v-138.336l-78.72-23.808v288.096zM824.192 716.192v-109.664l43.264 13.088v-80.576l-43.264-13.088v-102.24c0-12.32 0.864-20.224 2.496-23.68 2.56-5.312 7.040-7.136 13.504-5.152 5.792 1.76 13.92 6.624 24.352 14.496l5.792-74.56c-19.456-11.808-37.6-20.288-54.496-25.376-19.616-5.92-34.048-6.784-43.264-2.528-9.312 4.224-16.16 12.896-20.576 25.92-4.48 12.992-6.656 35.68-6.656 67.904v101.408l-29.024-8.8v80.576l29.024 8.8v52.96l78.848 80.544zM1132.736 528.544l-157.664-47.712c1.408-17.376 4.8-29.472 10.208-36.544 7.584-10.208 17.568-13.408 29.76-9.696 7.712 2.336 15.104 7.264 22.048 14.816 4.288 4.736 8.832 12.128 13.728 22.304l77.504 13.44c-11.872-32.576-26.112-57.632-42.88-75.296-16.736-17.568-40.768-31.136-72.096-40.608-27.168-8.224-48.544-9.312-64.192-3.328-15.552 6.016-28.48 19.264-38.72 39.584s-15.36 46.272-15.36 77.952c0 45.024 10.272 84.608 30.816 118.592 20.576 34.112 48.96 56.672 85.152 67.616 29.344 8.896 52.576 9.6 69.536 2.24 17.024-7.264 30.016-21.472 38.848-42.4 8.896-21.024 13.312-50.496 13.312-88.48v-12.48zM1052.832 557.248c-1.568 20.896-5.664 34.944-12.256 42.112-6.656 7.264-15.36 9.248-26.176 5.952-12.544-3.776-22.496-13.856-30.016-30.016-4.736-10.144-7.776-23.936-9.024-41.536l77.504 23.456zM1169.728 711.136l73.6 22.272v-47.136c7.136 22.528 14.432 38.816 21.984 48.768s16.832 16.672 27.904 20.032c11.616 3.52 24.256 2.24 38.048-3.68l-24.32-86.080c-9.248 2.656-16.64 3.104-22.048 1.472-10.304-3.104-18.272-11.552-23.936-25.12-8.096-19.328-12.192-52.032-12.192-98.176v-96.576l-79.040-23.904v288.128zM1423.072 694.592l-75.136-11.648c2.816 19.296 6.912 35.072 12.256 47.232s12.992 23.648 23.104 34.496c7.2 7.84 17.152 15.2 29.728 22.048s26.272 12.576 40.96 17.024c23.552 7.136 42.56 11.008 56.8 11.648 14.304 0.64 26.272-3.552 35.744-12.416 6.752-6.112 12-16 15.904-29.728 3.84-13.856 5.76-27.456 5.76-41.056v-127.232c0-13.504 0.64-23.968 1.856-31.296 1.248-7.328 3.904-16.32 8.064-27.008l-73.824-22.336c-2.976 6.528-4.864 11.584-5.792 15.2s-1.792 9.472-2.688 17.504c-10.304-17.088-20.576-30.112-30.752-39.104-13.92-12.16-30.080-21.056-48.512-26.624-24.48-7.424-43.072-5.088-55.808 7.008-12.672 12-19.008 29.728-19.008 53.056 0 21.952 4.544 41.28 13.728 58.144 9.152 16.928 25.984 32.512 50.592 46.784 29.568 17.28 48.672 28.896 57.472 34.912 8.704 5.952 18.016 13.216 27.776 21.536 0 13.632-1.984 22.464-5.952 26.72-4 4.16-11.008 4.8-21.12 1.76-12.864-3.904-22.496-9.76-28.96-17.472-4.992-6.080-9.088-15.84-12.16-29.184v0zM1491.264 657.152c-10.816-8.736-22.112-16.992-33.76-24.672-15.968-10.752-26.112-19.776-30.336-26.752-4.416-7.36-6.592-14.784-6.592-22.368 0-8.704 2.176-15.104 6.464-19.328 4.352-4.128 10.656-5.024 19.072-2.464 8.768 2.656 16.896 8.064 24.48 16.288 7.52 8.288 12.864 17.216 16.032 26.72 3.168 9.568 4.704 21.248 4.704 34.944l-0.032 17.664zM1768.48 716.896l74.72 10.688c-4.096-23.104-10.88-44.128-20.256-63.008-9.44-18.88-21.44-34.912-36.096-48.224-14.592-13.216-33.184-23.296-55.712-30.112-21.76-6.592-39.904-9.216-54.368-7.936-14.528 1.344-26.976 6.752-37.408 16.352-10.496 9.6-18.656 22.048-24.544 37.472-5.952 15.328-8.896 37.216-8.896 65.632 0 29.632 3.552 55.424 10.848 77.344 5.28 16.032 12.448 31.2 21.632 45.44s18.528 25.696 28.256 34.208c15.296 13.504 34.976 23.936 58.912 31.168 33.504 10.144 59.040 9.44 76.64-2.080 17.536-11.456 29.952-32.32 37.024-62.592l-74.048-36.192c-2.304 11.616-6.528 19.584-12.672 23.936-6.144 4.448-14.304 5.024-24.672 1.888-12.992-3.936-23.552-13.696-31.584-29.184-8.064-15.584-12.064-36.608-12.064-63.2 0-23.68 4-40.448 12-50.368s18.144-12.928 30.528-9.184c10.304 3.104 18.944 9.44 25.984 18.976 7.008 9.536 12.288 22.496 15.776 38.944v0z" />
<glyph unicode="&#xe908;" glyph-name="discover" horiz-adv-x="2048" d="M225.28 960v-1024h1597.44v1024h-1597.44zM795.936-33.28h-539.936v962.56h1536v-586.592c-134.016-79.744-474.208-258.848-996.064-375.968zM355.072 648.576h-68.352v-239.68h68.352c35.968 0 62.624 7.904 85.664 27.36 27.36 23.040 43.168 56.864 43.168 92.128 0 70.528-52.544 120.192-128.832 120.192zM409.792 467.904c-14.4-12.928-33.824-18.72-64.064-18.72h-12.224v158.336h12.224c30.24 0 48.96-5.024 64.064-19.424 16.576-14.4 25.92-36.704 25.92-59.744s-9.344-45.312-25.92-60.448zM505.536 648.576h46.784v-239.68h-46.784v239.68zM666.752 556.448c-28.064 10.080-35.968 17.28-35.968 30.24 0 15.104 14.4 26.656 34.56 26.656 14.4 0 25.92-5.76 38.144-19.424l24.48 31.648c-20.16 18.016-44.64 26.624-70.528 26.624-42.464 0-74.848-29.504-74.848-68.352 0-33.12 15.104-50.368 59.040-66.24 18.016-6.464 27.36-10.080 32.384-13.696 9.376-5.76 13.696-14.4 13.696-24.48 0-19.424-15.136-33.824-35.968-33.824-22.336 0-40.288 10.784-51.104 31.648l-30.24-28.8c21.6-31.648 47.488-46.048 82.784-46.048 48.96 0 82.784 32.384 82.784 79.168-0.032 38.144-15.872 55.424-69.152 74.88zM750.976 528.384c0-70.56 55.424-125.248 126.688-125.248 20.16 0 37.44 3.616 58.304 13.696v55.424c-18.72-18.72-35.264-26.624-56.16-26.624-47.488 0-80.608 34.56-80.608 82.784 0 46.048 34.56 82.784 78.464 82.784 22.336 0 38.88-7.936 58.304-27.36v55.424c-20.16 10.080-37.44 14.4-57.6 14.4-70.528 0-127.392-55.424-127.392-125.248zM1210.176 526.944c0-71.936-58.336-130.272-130.272-130.272s-130.272 58.336-130.272 130.272c0 71.936 58.336 130.272 130.272 130.272s130.272-58.336 130.272-130.272zM1307.36 487.36l-64.064 161.216h-51.104l102.208-246.176h25.216l103.616 246.176h-51.104zM1444.128 408.896h132.448v40.288h-85.664v64.768h82.784v40.32h-82.784v53.28h85.664v41.024h-132.448zM1707.552 509.664c35.264 7.2 54.688 30.944 54.688 67.648 0 45.344-30.944 71.264-84.928 71.264h-69.824v-239.68h46.784v95.712h6.496l64.768-95.712h57.568l-75.584 100.768zM1667.936 537.76h-13.696v72.672h14.4c29.504 0 45.344-12.224 45.344-35.264 0.032-24.48-15.808-37.408-46.048-37.408z" />
</font>
</defs>
</svg>
